<svg xmlns="http://www.w3.org/2000/svg" width="17.836" height="21.949" viewBox="0 0 17.836 21.949">
  <path id="Path_19" data-name="Path 19" d="M17.277,8.727a4.637,4.637,0,0,0-1.541.252q-.721.252-1.307.5a2.633,2.633,0,0,1-1.008.252,2.568,2.568,0,0,1-1.02-.24q-.551-.24-1.189-.475a3.932,3.932,0,0,0-1.365-.234,5.11,5.11,0,0,0-2.625.744,5.629,5.629,0,0,0-2.068,2.2,7.3,7.3,0,0,0-.8,3.574,11.9,11.9,0,0,0,.3,2.666,14.1,14.1,0,0,0,.826,2.52,12.093,12.093,0,0,0,1.154,2.092,18.342,18.342,0,0,0,1.6,1.969,2.426,2.426,0,0,0,1.811.82,2.844,2.844,0,0,0,1.184-.229q.5-.229,1.061-.451a3.8,3.8,0,0,1,1.4-.223,3.551,3.551,0,0,1,1.365.217q.51.217.99.439a2.937,2.937,0,0,0,1.23.223,2.347,2.347,0,0,0,1.342-.4,5.049,5.049,0,0,0,1.1-1.02q.5-.621.973-1.289a10.8,10.8,0,0,0,.855-1.471,12.235,12.235,0,0,0,.486-1.154,5.038,5.038,0,0,0,.158-.492l-.475-.252a5.283,5.283,0,0,1-1.02-.756,4.706,4.706,0,0,1-1-1.365,4.51,4.51,0,0,1-.434-2.068,4.518,4.518,0,0,1,.34-1.828,4.7,4.7,0,0,1,.8-1.277,5.62,5.62,0,0,1,.82-.768l.41-.3a4.706,4.706,0,0,0-1.207-1.242,5,5,0,0,0-1.283-.645,5.457,5.457,0,0,0-1.125-.246Q17.512,8.727,17.277,8.727ZM16.5,6.934a5.614,5.614,0,0,0,.832-1.424,4.314,4.314,0,0,0,.328-1.646,1.948,1.948,0,0,0-.047-.445,4.134,4.134,0,0,0-1.723.5,4.91,4.91,0,0,0-1.5,1.172,5.39,5.39,0,0,0-.838,1.324,3.863,3.863,0,0,0-.369,1.641,1.543,1.543,0,0,0,.018.24q.018.111.029.158a1.78,1.78,0,0,0,.293.023,3.43,3.43,0,0,0,1.588-.439A4.453,4.453,0,0,0,16.5,6.934Z" transform="translate(-4.352 -3.418)" fill="#fff"/>
</svg>
