<svg xmlns="http://www.w3.org/2000/svg" width="24.504" height="23.156" viewBox="0 0 24.504 23.156">
  <path id="Path_30" data-name="Path 30" d="M7.759,27.266a1.517,1.517,0,0,0,.814-.229,8.033,8.033,0,0,0,.92-.7L13.3,22.953h6.9a5.96,5.96,0,0,0,2.8-.6A4.045,4.045,0,0,0,24.751,20.6a5.981,5.981,0,0,0,.6-2.789V9.266a5.981,5.981,0,0,0-.6-2.789A4.079,4.079,0,0,0,23,4.719a5.912,5.912,0,0,0-2.8-.609H5.989a5.96,5.96,0,0,0-2.8.6A4.038,4.038,0,0,0,1.442,6.471a6.017,6.017,0,0,0-.6,2.795v8.543a5.968,5.968,0,0,0,.6,2.795,4.045,4.045,0,0,0,1.746,1.752,5.889,5.889,0,0,0,2.76.6h.492v2.813a1.654,1.654,0,0,0,.34,1.09A1.192,1.192,0,0,0,7.759,27.266Zm.5-2.25V21.84a.924.924,0,0,0-.205-.68.945.945,0,0,0-.674-.2H6.036a3.208,3.208,0,0,1-2.408-.809,3.3,3.3,0,0,1-.779-2.379V9.3a3.3,3.3,0,0,1,.779-2.379,3.208,3.208,0,0,1,2.408-.809H20.157a3.229,3.229,0,0,1,2.414.809A3.284,3.284,0,0,1,23.356,9.3v8.473a3.284,3.284,0,0,1-.785,2.379,3.229,3.229,0,0,1-2.414.809H13.208a2.434,2.434,0,0,0-.791.105,1.661,1.661,0,0,0-.627.457ZM7.419,10.543H18.645a.66.66,0,0,0,.668-.668.632.632,0,0,0-.193-.463.645.645,0,0,0-.475-.193H7.419a.66.66,0,0,0-.656.656.645.645,0,0,0,.193.475A.632.632,0,0,0,7.419,10.543Zm0,3.574H18.645a.636.636,0,0,0,.475-.2.665.665,0,0,0-.475-1.137H7.419a.632.632,0,0,0-.463.193.672.672,0,0,0,0,.943A.622.622,0,0,0,7.419,14.117Zm0,3.563h7.313a.66.66,0,0,0,.656-.656.659.659,0,0,0-.193-.486.632.632,0,0,0-.463-.193H7.419a.632.632,0,0,0-.463.193.659.659,0,0,0-.193.486.66.66,0,0,0,.656.656Z" transform="translate(-0.845 -4.109)" fill="#9a9a9a"/>
</svg>
