<svg xmlns="http://www.w3.org/2000/svg" width="21.563" height="16.826" viewBox="0 0 21.563 16.826">
  <path id="Path_39" data-name="Path 39" d="M5.557,1.377H21.279A2.7,2.7,0,0,0,23.325.62a3.161,3.161,0,0,0,.728-2.271V-12.432a3.045,3.045,0,0,0-.767-2.261,3.148,3.148,0,0,0-2.3-.757H5.264a2.7,2.7,0,0,0-2.046.757,3.146,3.146,0,0,0-.728,2.261V-1.65A3.06,3.06,0,0,0,3.257.62,3.148,3.148,0,0,0,5.557,1.377ZM5.5-.117A1.532,1.532,0,0,1,4.375-.5,1.545,1.545,0,0,1,3.984-1.65V-12.432a1.531,1.531,0,0,1,.391-1.138A1.532,1.532,0,0,1,5.5-13.955H21.045a1.535,1.535,0,0,1,1.118.386,1.534,1.534,0,0,1,.4,1.147V-1.641a1.52,1.52,0,0,1-.4,1.138,1.535,1.535,0,0,1-1.118.386Zm7.793-4.316a2.448,2.448,0,0,0,1.016-.225,3.6,3.6,0,0,0,1.016-.732l7.93-7.793-1.016-1.025L14.473-6.543a2.6,2.6,0,0,1-.61.459,1.252,1.252,0,0,1-.571.146,1.238,1.238,0,0,1-.581-.151,2.673,2.673,0,0,1-.6-.454l-7.8-7.705L3.281-13.223,11.26-5.391a3.453,3.453,0,0,0,1.011.732A2.481,2.481,0,0,0,13.291-4.434ZM22.139.1,23.154-.928l-6.318-6.24L15.82-6.152ZM3.418-.918,4.434.107l6.328-6.26L9.736-7.168Z" transform="translate(-2.49 15.449)" fill="#fff"/>
</svg>
