<svg id="Group_1623" data-name="Group 1623" xmlns="http://www.w3.org/2000/svg" xmlns:xlink="http://www.w3.org/1999/xlink" width="21.56" height="22" viewBox="0 0 21.56 22">
  <defs>
    <clipPath id="clip-path">
      <rect id="Rectangle_450" data-name="Rectangle 450" width="21.56" height="22" fill="none"/>
    </clipPath>
  </defs>
  <g id="Group_1622" data-name="Group 1622" clip-path="url(#clip-path)">
    <path id="Path_20" data-name="Path 20" d="M61.58,43.972a9.424,9.424,0,0,0-.232-2.249H51.02v4.082h6.062a5.375,5.375,0,0,1-2.249,3.569l-.02.137,3.265,2.53.226.023a10.756,10.756,0,0,0,3.276-8.091" transform="translate(-40.02 -32.728)" fill="#367cff" fill-rule="evenodd"/>
    <path id="Path_21" data-name="Path 21" d="M15.268,69.935a10.485,10.485,0,0,0,7.284-2.664l-3.471-2.689a6.512,6.512,0,0,1-3.813,1.1A6.622,6.622,0,0,1,9.01,61.111l-.129.011-3.4,2.628-.044.123a10.992,10.992,0,0,0,9.827,6.062" transform="translate(-4.268 -47.935)" fill="#34a853" fill-rule="evenodd"/>
    <path id="Path_22" data-name="Path 22" d="M4.742,35.036a6.772,6.772,0,0,1-.367-2.176,7.117,7.117,0,0,1,.354-2.175l-.006-.146-3.438-2.67-.113.053a10.977,10.977,0,0,0,0,9.876Z" transform="translate(0 -21.86)" fill="#fbbc04" fill-rule="evenodd"/>
    <path id="Path_23" data-name="Path 23" d="M15.268,4.254a6.1,6.1,0,0,1,4.253,1.638l3.1-3.031A10.569,10.569,0,0,0,15.268,0,10.992,10.992,0,0,0,5.441,6.063L9,8.825A6.65,6.65,0,0,1,15.268,4.254Z" transform="translate(-4.268 -0.001)" fill="#ff3a30" fill-rule="evenodd"/>
  </g>
</svg>
