<svg xmlns="http://www.w3.org/2000/svg" width="22.77" height="22.77" viewBox="0 0 22.77 22.77">
  <path id="Path_45" data-name="Path 45" d="M13.1,26.387a10.9,10.9,0,0,0,4.395-.9A11.672,11.672,0,0,0,23.587,19.4a11.267,11.267,0,0,0-.006-8.795,11.736,11.736,0,0,0-2.467-3.639A11.452,11.452,0,0,0,17.481,4.5a11.028,11.028,0,0,0-4.395-.885A10.987,10.987,0,0,0,8.7,4.5a11.639,11.639,0,0,0-6.1,6.1A11.267,11.267,0,0,0,2.6,19.4,11.727,11.727,0,0,0,8.7,25.49,10.891,10.891,0,0,0,13.1,26.387Zm0-2.086a9.122,9.122,0,0,1-3.621-.721A9.312,9.312,0,0,1,4.52,18.617a9.309,9.309,0,0,1,4.951-12.2A9.144,9.144,0,0,1,13.087,5.7a9.3,9.3,0,0,1,6.6,15.879,9.338,9.338,0,0,1-2.965,2A9.122,9.122,0,0,1,13.1,24.3Zm7.465-2-.035-.141a3.759,3.759,0,0,0-1.312-1.594,8.359,8.359,0,0,0-2.578-1.271,11.727,11.727,0,0,0-3.551-.5,11.627,11.627,0,0,0-3.533.5,8.367,8.367,0,0,0-2.572,1.271,3.985,3.985,0,0,0-1.336,1.582L5.61,22.3a9.957,9.957,0,0,0,2.361,1.658A13.5,13.5,0,0,0,10.667,25a9.6,9.6,0,0,0,2.42.357A9.563,9.563,0,0,0,15.512,25,13.611,13.611,0,0,0,18.2,23.961,9.914,9.914,0,0,0,20.563,22.3Zm-7.477-5.355a3.451,3.451,0,0,0,1.939-.539A3.974,3.974,0,0,0,16.4,14.9a4.46,4.46,0,0,0,.51-2.145A4.214,4.214,0,0,0,16.4,10.7,4.088,4.088,0,0,0,15.02,9.207a3.584,3.584,0,0,0-3.855,0A4.088,4.088,0,0,0,9.788,10.7a4.214,4.214,0,0,0-.51,2.057,4.352,4.352,0,0,0,.516,2.133,4.062,4.062,0,0,0,1.371,1.488A3.549,3.549,0,0,0,13.087,16.941Z" transform="translate(-1.708 -3.617)" fill="#fff"/>
</svg>
