<svg xmlns="http://www.w3.org/2000/svg" width="13.33" height="19.15" viewBox="0 0 13.33 19.15">
  <path id="Path_40" data-name="Path 40" d="M6.182,2.275h8.936a2.172,2.172,0,0,0,1.636-.581,2.419,2.419,0,0,0,.562-1.743V-6.777a2.4,2.4,0,0,0-.562-1.733,2.172,2.172,0,0,0-1.636-.581H6.182a2.172,2.172,0,0,0-1.636.581,2.4,2.4,0,0,0-.562,1.733V-.049a2.419,2.419,0,0,0,.562,1.743A2.172,2.172,0,0,0,6.182,2.275ZM6.23.8A.631.631,0,0,1,5.742.61.785.785,0,0,1,5.566.059V-6.885a.767.767,0,0,1,.176-.547.64.64,0,0,1,.488-.186h8.838a.637.637,0,0,1,.493.186.781.781,0,0,1,.171.547V.059a.8.8,0,0,1-.171.552.628.628,0,0,1-.493.19ZM5.693-8.34H7.246v-3.291a4.2,4.2,0,0,1,.469-2.07,3.181,3.181,0,0,1,1.245-1.27,3.422,3.422,0,0,1,1.685-.43,3.441,3.441,0,0,1,1.694.43,3.214,3.214,0,0,1,1.25,1.27,4.161,4.161,0,0,1,.474,2.07V-8.34h1.543v-3.086a5.961,5.961,0,0,0-.708-3.047,4.6,4.6,0,0,0-1.841-1.807,5.108,5.108,0,0,0-2.412-.6,5.089,5.089,0,0,0-2.4.6A4.6,4.6,0,0,0,6.4-14.473a5.961,5.961,0,0,0-.708,3.047Z" transform="translate(-3.984 16.875)" fill="#fff"/>
</svg>
