<svg xmlns="http://www.w3.org/2000/svg" width="45.532" height="45.508" viewBox="0 0 45.532 45.508">
  <path id="Path_52" data-name="Path 52" d="M169.788,10.6c-2.515-2.515-5.981-2.979-10.425-2.979h-18.8c-4.37,0-7.861.488-10.352,2.979-2.515,2.515-2.979,5.957-2.979,10.352V39.724c0,4.468.464,7.91,2.954,10.425,2.539,2.49,6.006,2.979,10.449,2.979h18.726c4.443,0,7.91-.488,10.425-2.979,2.515-2.515,2.979-5.957,2.979-10.425V21C172.766,16.555,172.3,13.112,169.788,10.6Zm-36.108,3.491c1.367-1.367,3.76-1.709,6.323-1.709h8.374v9.082c-1.562-2.954-4.175-4.761-7.129-4.761a5.962,5.962,0,0,0-6.1,6.128c0,2.93,1.953,5.371,4.81,6.763h-7.935v-9.2C132.019,17.8,132.336,15.456,133.679,14.089Zm34.3,6.25v9.253h-7.935c2.832-1.392,4.785-3.833,4.785-6.763a5.962,5.962,0,0,0-6.1-6.128c-2.954,0-5.566,1.807-7.129,4.761V12.38h8.447c2.515,0,4.883.366,6.25,1.733C167.664,15.456,167.981,17.8,167.981,20.339Zm-20.7,8.911c-4.541,0-8.423-3.174-8.423-6.079a2.558,2.558,0,0,1,2.71-2.783c3.394,0,6.372,3.857,6.372,8.2v.659Zm5.444,0h-.684v-.659c0-4.346,2.979-8.2,6.372-8.2a2.558,2.558,0,0,1,2.71,2.783C161.121,26.076,157.263,29.25,152.722,29.25Zm7.324,19.092H151.6V34.548h.2c1.611,4.858,7.129,8.936,10.815,9.521a2.019,2.019,0,0,0,2.441-2.051,2.209,2.209,0,0,0-2.1-2.271c-3.2-.415-7.544-4.395-8.911-7.178h13.94v7.837c0,2.539-.342,4.858-1.685,6.226C164.929,48,162.561,48.342,160.046,48.342Zm-20.093,0c-2.515,0-4.883-.342-6.25-1.709s-1.685-3.687-1.685-6.226V32.57h13.94c-1.392,2.783-5.713,6.763-8.911,7.178a2.212,2.212,0,0,0-2.124,2.271,2.039,2.039,0,0,0,2.466,2.051c3.662-.586,9.2-4.663,10.815-9.521h.171V48.342Z" transform="translate(-127.234 -7.619)" fill="#fff"/>
</svg>
