<svg xmlns="http://www.w3.org/2000/svg" width="55.713" height="50.098" viewBox="0 0 55.713 50.098">
  <path id="Path_53" data-name="Path 53" d="M139.954,48.342c-2.515,0-4.883-.342-6.25-1.709s-1.685-3.687-1.685-6.226V20.388c0-2.588.317-4.932,1.66-6.3,1.367-1.367,3.76-1.709,6.323-1.709h20.044c2.515,0,4.883.366,6.25,1.733,1.367,1.343,1.685,3.687,1.685,6.226v9.009a15.567,15.567,0,0,1,2.393-.22,15.852,15.852,0,0,1,2.393.22V21c0-4.443-.464-7.886-2.979-10.4s-5.981-2.979-10.425-2.979h-18.8c-4.37,0-7.861.488-10.352,2.979-2.515,2.515-2.979,5.957-2.979,10.352V39.724c0,4.468.464,7.91,2.954,10.425,2.539,2.49,6.006,2.979,10.449,2.979h15.845a13.561,13.561,0,0,1-1.733-4.785Zm30.42,9.375a12.561,12.561,0,1,0-12.549-12.573A12.7,12.7,0,0,0,170.374,57.717Zm-1.416-5.762a1.956,1.956,0,0,1-1.392-.562l-4.077-4.468A1.959,1.959,0,0,1,163,45.681a1.715,1.715,0,0,1,1.733-1.758,1.735,1.735,0,0,1,1.294.562l2.832,3.1,5.762-7.983a1.86,1.86,0,0,1,1.465-.757,1.74,1.74,0,0,1,1.733,1.733,1.894,1.894,0,0,1-.342,1L170.4,51.32A1.821,1.821,0,0,1,168.958,51.955Z" transform="translate(-127.234 -7.619)" fill="#fff"/>
</svg>
