<svg xmlns="http://www.w3.org/2000/svg" width="45.532" height="45.508" viewBox="0 0 45.532 45.508">
  <path id="Path_50" data-name="Path 50" d="M169.788,10.6c-2.515-2.515-5.981-2.979-10.425-2.979h-18.8c-4.37,0-7.861.488-10.352,2.979-2.515,2.515-2.979,5.957-2.979,10.352V39.724c0,4.468.464,7.91,2.954,10.425,2.539,2.49,6.006,2.979,10.449,2.979h18.726c4.443,0,7.91-.488,10.425-2.979,2.515-2.515,2.979-5.957,2.979-10.425V21C172.766,16.555,172.3,13.112,169.788,10.6Zm-1.807,9.741V40.407c0,2.539-.342,4.858-1.685,6.226-1.367,1.367-3.735,1.709-6.25,1.709H139.954c-2.515,0-4.883-.342-6.25-1.709s-1.685-3.687-1.685-6.226V20.388c0-2.588.317-4.932,1.66-6.3,1.367-1.367,3.76-1.709,6.323-1.709h20.044c2.515,0,4.883.366,6.25,1.733C167.664,15.456,167.981,17.8,167.981,20.339Zm-17.944-2.49a2.073,2.073,0,0,0-2.173,2.1V31.5l.22,5.029-2.2-2.759-2.759-2.832a1.987,1.987,0,0,0-3.442,1.318,2.006,2.006,0,0,0,.562,1.465l8.081,8.154a2.225,2.225,0,0,0,1.709.806,2.358,2.358,0,0,0,1.733-.806l8.057-8.154a2.027,2.027,0,0,0,.586-1.465,1.946,1.946,0,0,0-2.026-1.953,1.9,1.9,0,0,0-1.465.635l-2.71,2.808-2.246,2.808.22-5.054V19.948A2.052,2.052,0,0,0,150.037,17.849Z" transform="translate(-127.234 -7.619)" fill="#fff"/>
</svg>
