<svg xmlns="http://www.w3.org/2000/svg" width="23.015" height="22" viewBox="0 0 23.015 22">
  <path id="Path_25" data-name="Path 25" d="M5.112,24.13a.92.92,0,0,0,.767.189,2.325,2.325,0,0,0,.929-.444l5.39-3.966,5.4,3.966a2.333,2.333,0,0,0,.93.444.924.924,0,0,0,.768-.189,1.039,1.039,0,0,0,.409-.68,2.109,2.109,0,0,0-.124-1L17.447,16.1l5.443-3.9a2.269,2.269,0,0,0,.7-.747.965.965,0,0,0,.061-.792,1,1,0,0,0-.517-.6,2.114,2.114,0,0,0-1-.187l-6.68.045L13.427,3.54a2.258,2.258,0,0,0-.5-.9.993.993,0,0,0-.733-.306.982.982,0,0,0-.723.306,2.256,2.256,0,0,0-.5.9L8.954,9.921,2.272,9.877a2.116,2.116,0,0,0-1,.187,1,1,0,0,0-.517.6.963.963,0,0,0,.06.793,2.275,2.275,0,0,0,.7.747L6.96,16.1,4.825,22.446a2.1,2.1,0,0,0-.123,1A1.041,1.041,0,0,0,5.112,24.13Zm1.653-2.263a.192.192,0,0,1,0-.095l2-5.691a1.007,1.007,0,0,0,.058-.594.84.84,0,0,0-.379-.459L3.47,11.6q-.063-.041-.053-.074t.095-.031l6.023.122a.973.973,0,0,0,.575-.13.861.861,0,0,0,.323-.5l1.713-5.776q.022-.083.053-.083t.063.083l1.712,5.776a.862.862,0,0,0,.323.5.975.975,0,0,0,.576.13L20.9,11.5q.085,0,.095.031t-.052.074l-4.97,3.424a.842.842,0,0,0-.378.459,1.01,1.01,0,0,0,.057.593l1.986,5.691a.152.152,0,0,1,.009.095q-.021.021-.094-.021l-4.783-3.677a.82.82,0,0,0-1.125,0L6.858,21.847Q6.785,21.888,6.764,21.867Z" transform="translate(-0.696 -2.337)" fill="#fff"/>
</svg>
