<svg xmlns="http://www.w3.org/2000/svg" width="22.001" height="22" viewBox="0 0 22.001 22">
  <path id="Path_26" data-name="Path 26" d="M3.518,10.041A13.958,13.958,0,0,0,6.48,12.463,13.979,13.979,0,0,0,10,13.994a13.877,13.877,0,0,0,3.851.516,13.584,13.584,0,0,0,4.536-.77,13.612,13.612,0,0,0,4.005-2.217l-.642-1.282a12.3,12.3,0,0,1-3.684,2.138,12.265,12.265,0,0,1-4.216.756,12.384,12.384,0,0,1-5.38-1.179A12.429,12.429,0,0,1,4.147,8.614Zm-1.166,6.1a17.557,17.557,0,0,0,4.571,2.85,18.267,18.267,0,0,0,5.118,1.352,18.108,18.108,0,0,0,5.278-.174,17.517,17.517,0,0,0,5.049-1.74l-.039-1.571A16.147,16.147,0,0,1,17.4,18.749a16.48,16.48,0,0,1-5.2.229,16.727,16.727,0,0,1-5.044-1.4A16.575,16.575,0,0,1,2.7,14.588ZM7.677,23.5l1.64.38a14.649,14.649,0,0,1-1.169-5.559A15.89,15.89,0,0,1,8.7,13.182a16.652,16.652,0,0,1,5.557-8.5L12.807,4.1A17.891,17.891,0,0,0,6.763,18.354a16.164,16.164,0,0,0,.251,2.6A17.229,17.229,0,0,0,7.677,23.5Zm7.1,1.059,1.279-.569a16.827,16.827,0,0,1-2.306-4.582A16.454,16.454,0,0,1,15.728,5.15l-1.34-.479a17.915,17.915,0,0,0,.386,19.892ZM21.045,20.6l.923-1.05a11.673,11.673,0,0,1-5.149-6.025,11.506,11.506,0,0,1-.745-4.008A11.272,11.272,0,0,1,16.253,7.3a11.608,11.608,0,0,1,.6-2.138l-1.326-.374A12.284,12.284,0,0,0,14.886,7.1a13.45,13.45,0,0,0-.2,2.428,12.8,12.8,0,0,0,.8,4.377,13.138,13.138,0,0,0,2.2,3.814A12.939,12.939,0,0,0,21.045,20.6ZM8.087,14.39a1.722,1.722,0,1,0-1.216-2.943,1.64,1.64,0,0,0-.507,1.21A1.729,1.729,0,0,0,8.087,14.39Zm8.219.891a1.624,1.624,0,0,0,1.2-.5,1.662,1.662,0,0,0,.5-1.214,1.7,1.7,0,0,0-3.4,0,1.662,1.662,0,0,0,.5,1.214A1.637,1.637,0,0,0,16.306,15.281Zm-3.2,6.144a1.644,1.644,0,0,0,1.213-.507,1.72,1.72,0,1,0-1.213.507Zm-.4,4.186a10.533,10.533,0,0,0,4.248-.865,11.333,11.333,0,0,0,3.511-2.381,11.144,11.144,0,0,0,2.382-3.506,10.889,10.889,0,0,0-.005-8.5,11.3,11.3,0,0,0-5.9-5.892,10.588,10.588,0,0,0-4.249-.86,10.56,10.56,0,0,0-4.237.86,11.268,11.268,0,0,0-5.892,5.892,10.889,10.889,0,0,0,.005,8.5A11.3,11.3,0,0,0,8.46,24.746,10.535,10.535,0,0,0,12.709,25.612Zm0-1.6a9.047,9.047,0,0,1-3.628-.736A9.616,9.616,0,0,1,4.044,18.24a9.3,9.3,0,0,1,0-7.256A9.63,9.63,0,0,1,9.075,5.947a9.308,9.308,0,0,1,7.256,0,9.664,9.664,0,0,1,3,2.035,9.53,9.53,0,0,1,2.04,3,9.308,9.308,0,0,1,0,7.256,9.615,9.615,0,0,1-5.037,5.037A9.044,9.044,0,0,1,12.709,24.012Z" transform="translate(-1.708 -3.612)" fill="#fff"/>
</svg>
